<?xml version="1.0" encoding="UTF-8" standalone="no"?>
<svg
   xmlns:dc="http://purl.org/dc/elements/1.1/"
   xmlns:cc="http://creativecommons.org/ns#"
   xmlns:rdf="http://www.w3.org/1999/02/22-rdf-syntax-ns#"
   xmlns:svg="http://www.w3.org/2000/svg"
   xmlns="http://www.w3.org/2000/svg"
   xmlns:sodipodi="http://sodipodi.sourceforge.net/DTD/sodipodi-0.dtd"
   xmlns:inkscape="http://www.inkscape.org/namespaces/inkscape"
   version="1.0"
   width="6912.000000pt"
   height="3456.000000pt"
   viewBox="0 0 6912.000000 3456.000000"
   preserveAspectRatio="xMidYMid meet"
   id="svg4728"
   sodipodi:docname="landing.svg"
   inkscape:version="0.92.4 (5da689c313, 2019-01-14)">
  <defs
     id="defs4732" />
  <sodipodi:namedview
     pagecolor="#ffffff"
     bordercolor="#666666"
     borderopacity="1"
     objecttolerance="10"
     gridtolerance="10"
     guidetolerance="10"
     inkscape:pageopacity="0"
     inkscape:pageshadow="2"
     inkscape:window-width="2560"
     inkscape:window-height="1369"
     id="namedview4730"
     showgrid="false"
     inkscape:zoom="0.22569444"
     inkscape:cx="4608"
     inkscape:cy="2304"
     inkscape:window-x="-8"
     inkscape:window-y="-6"
     inkscape:window-maximized="1"
     inkscape:current-layer="svg4728" />
  <metadata
     id="metadata4680">
Created by potrace 1.16, written by Peter Selinger 2001-2019
<rdf:RDF>
  <cc:Work
     rdf:about="">
    <dc:format>image/svg+xml</dc:format>
    <dc:type
       rdf:resource="http://purl.org/dc/dcmitype/StillImage" />
    <dc:title></dc:title>
  </cc:Work>
</rdf:RDF>
</metadata>
  <g
     transform="translate(0.000000,3456.000000) scale(0.100000,-0.100000)"
     id="g4726"
     stroke="none"
     fill="#000000"
     style="fill:#3949ab;fill-opacity:1">
    <path
       d="M0 17280 l0 -17280 34560 0 34560 0 0 17280 0 17280 -34560 0 -34560 0 0 -17280z m64540 5 l0 -8355 -29980 0 -29980 0 0 8355 0 8355 29980 0 29980 0 0 -8355z"
       id="path4682"
       style="fill:#3949ab;fill-opacity:1" />
    <path
       d="M4737 25483 c-4 -3 -7 -3696 -7 -8205 l0 -8198 29830 0 29830 0 0 8205 0 8205 -29823 0 c-16403 0 -29827 -3 -29830 -7z m33487 -2413 c290 -62 509 -206 663 -435 118 -176 182 -391 203 -680 13 -190 13 -2745 -1 -2935 -27 -387 -136 -652 -354 -858 -220 -208 -517 -302 -920 -289 -235 7 -396 43 -563 124 -317 154 -507 434 -579 855 -16 94 -17 224 -21 1548 -4 1685 -2 1718 80 1964 59 178 138 307 258 426 140 139 277 213 500 271 127 32 192 38 420 34 174 -2 234 -7 314 -25z m6933 -4 c206 -52 351 -124 482 -239 225 -198 343 -481 371 -882 13 -195 13 -2684 0 -2901 -24 -399 -123 -651 -339 -864 -213 -210 -494 -310 -876 -310 -594 0 -987 258 -1149 752 -28 88 -51 204 -66 340 -14 134 -14 2891 1 3048 54 592 361 960 887 1064 118 23 132 24 367 21 197 -3 231 -6 322 -29z m6938 10 c162 -37 282 -85 401 -161 85 -54 230 -206 287 -302 133 -223 197 -529 183 -883 -13 -359 -82 -614 -257 -961 -152 -301 -321 -532 -640 -875 -459 -495 -647 -765 -688 -988 -12 -64 -15 -205 -5 -230 6 -14 82 -16 765 -16 l759 0 0 -365 0 -365 -1166 0 -1166 0 5 433 c5 484 13 555 82 760 114 343 300 620 700 1048 343 365 494 566 625 828 125 249 170 434 177 726 8 302 -26 444 -131 543 -75 71 -144 96 -271 96 -120 1 -191 -18 -261 -70 -137 -101 -163 -213 -164 -706 l0 -268 -381 0 -381 0 5 368 c4 316 8 383 26 480 94 508 381 814 849 906 118 23 132 24 362 21 151 -3 236 -8 285 -19z m4113 14 c272 -34 487 -134 658 -304 137 -138 226 -297 279 -501 51 -198 50 -152 50 -1800 0 -1439 -1 -1547 -18 -1645 -49 -285 -152 -497 -322 -665 -136 -135 -307 -222 -535 -273 -104 -23 -136 -26 -330 -26 -234 0 -327 11 -481 60 -175 55 -297 130 -424 259 -135 138 -217 287 -270 490 -52 199 -50 132 -50 1810 l0 1570 22 111 c54 263 140 439 296 601 156 163 370 269 617 308 104 16 395 19 508 5z m-42033 -410 l0 -365 -417 -3 -418 -2 0 -2190 0 -2190 -405 0 -405 0 0 2190 0 2190 -420 0 -420 0 0 370 0 370 1243 -2 1242 -3 0 -365z m1167 -727 l3 -1098 453 -3 452 -2 0 1100 0 1100 413 -2 412 -3 3 -2557 2 -2558 -415 0 -415 0 0 1095 0 1095 -455 0 -455 0 0 -1095 0 -1095 -400 0 -400 0 0 2560 0 2560 400 0 400 0 2 -1097z m4508 727 l0 -370 -695 0 -695 0 0 -710 0 -710 555 0 555 0 0 -365 0 -365 -552 -2 -553 -3 0 -745 0 -745 693 -3 692 -2 0 -365 0 -365 -1095 0 -1095 0 0 2560 0 2560 1095 0 1095 0 0 -370z m3100 346 c270 -48 451 -136 601 -292 165 -173 255 -382 295 -687 23 -177 16 -1150 -10 -1280 -81 -416 -272 -681 -585 -812 -190 -79 -302 -96 -668 -102 l-303 -5 0 -959 0 -959 -400 0 -400 0 0 2561 0 2560 688 -4 c592 -3 700 -6 782 -21z m3099 -178 c18 -112 202 -1263 410 -2558 l377 -2355 -405 -3 c-222 -1 -406 -1 -408 1 -2 2 -34 210 -71 463 l-68 459 -492 3 c-271 1 -492 0 -492 -4 0 -10 -130 -879 -135 -901 l-5 -23 -371 0 -371 0 6 33 c3 17 186 1159 406 2537 220 1378 403 2515 405 2528 l5 22 589 0 588 0 32 -202z m3421 -168 l0 -370 -420 0 -420 0 0 -2190 0 -2190 -400 0 -400 0 0 2190 0 2190 -420 0 -420 0 0 370 0 370 1240 0 1240 0 0 -370z m1170 -730 l0 -1100 455 0 455 0 0 1100 0 1100 410 0 410 0 0 -2560 0 -2560 -410 0 -410 0 0 1095 0 1095 -455 0 -455 0 0 -1095 0 -1095 -400 0 -400 0 0 2560 0 2560 400 0 400 0 0 -1100z m5715 730 l0 -365 -417 -3 -418 -2 0 -2190 0 -2190 -405 0 -405 0 0 2190 0 2190 -420 0 -420 0 0 370 0 370 1243 -2 1242 -3 0 -365z m5274 -792 c167 -637 306 -1157 307 -1155 1 1 138 515 304 1142 165 627 303 1148 306 1158 5 16 32 17 390 17 362 0 385 -1 380 -17 -3 -10 -233 -783 -511 -1718 l-505 -1701 0 -842 0 -842 -400 0 -400 0 0 841 0 841 -505 1702 c-278 935 -508 1709 -511 1719 -5 16 18 17 417 15 l423 -3 305 -1157z m5673 -890 c3 -1915 4 -2057 20 -2111 10 -31 29 -79 42 -106 118 -231 585 -229 703 3 62 122 57 -45 60 2209 l3 2057 380 0 380 0 -3 -2087 c-3 -1892 -5 -2095 -20 -2166 -61 -292 -149 -470 -312 -632 -150 -149 -333 -238 -580 -281 -141 -24 -447 -25 -570 -1 -267 52 -444 143 -601 309 -179 191 -277 447 -304 798 -11 150 -15 4042 -3 4053 3 4 185 7 404 7 l399 0 2 -2052z m6938 -2678 l0 -390 -390 0 -390 0 0 383 c0 211 3 387 7 390 3 4 179 7 390 7 l383 0 0 -390z m-27155 -2614 c74 -19 118 -44 112 -64 -2 -9 -17 -59 -33 -110 -32 -104 -30 -103 -119 -68 -50 19 -135 20 -179 2 -56 -23 -76 -59 -76 -135 0 -36 4 -72 8 -78 6 -9 56 -13 172 -15 l165 -3 0 -115 0 -115 -167 -3 -168 -2 0 -465 0 -465 -145 0 -145 0 0 465 0 465 -85 0 -86 0 3 118 3 117 77 3 77 3 -6 88 c-7 108 6 167 51 236 40 62 97 102 185 132 54 18 88 23 186 23 69 0 141 -6 170 -14z m427 4 c48 -14 97 -55 114 -97 65 -155 -105 -300 -257 -220 -57 30 -89 84 -89 152 0 79 42 136 120 162 45 15 66 15 112 3z m26403 -1 c78 -22 136 -114 121 -192 -15 -81 -97 -147 -181 -147 -54 0 -124 37 -152 79 -45 67 -24 187 39 232 53 38 106 46 173 28z m1075 -14 c79 -32 79 -31 40 -150 -19 -58 -39 -105 -44 -105 -6 1 -36 9 -66 20 -154 54 -270 1 -270 -125 0 -100 -11 -94 179 -97 l166 -3 3 -117 3 -118 -166 0 -165 0 0 -465 0 -465 -150 0 -150 0 0 465 0 464 -82 3 -83 3 0 115 0 115 81 3 81 3 -9 52 c-36 194 65 359 252 412 79 21 317 16 380 -10z m-37280 -295 c0 -188 4 -300 10 -300 5 0 29 20 54 44 90 91 222 130 364 107 192 -29 317 -149 374 -358 31 -117 32 -366 0 -476 -31 -108 -65 -171 -128 -237 -93 -97 -195 -135 -352 -128 -119 4 -186 33 -260 109 -26 27 -50 49 -54 49 -5 0 -8 -31 -8 -70 l0 -70 -150 0 -150 0 0 815 0 815 150 0 150 0 0 -300z m11290 -515 l0 -815 -150 0 -150 0 0 75 c0 41 -3 75 -7 75 -5 0 -27 -22 -51 -49 -28 -33 -65 -61 -109 -83 -65 -32 -72 -33 -188 -33 -153 1 -207 20 -301 107 -120 112 -167 252 -167 488 0 236 48 376 168 489 167 156 469 158 603 6 22 -25 42 -42 46 -38 3 3 6 138 6 300 l0 293 150 0 150 0 0 -815z m6830 515 c0 -165 3 -300 6 -300 3 0 30 22 59 49 66 60 124 87 216 102 192 32 376 -55 463 -220 60 -115 78 -202 78 -376 0 -121 -4 -165 -21 -228 -44 -167 -129 -279 -259 -340 -64 -31 -72 -32 -192 -32 -115 0 -130 2 -183 27 -32 15 -79 49 -107 78 -27 27 -51 50 -54 50 -3 0 -6 -31 -6 -70 l0 -70 -150 0 -150 0 0 815 0 815 150 0 150 0 0 -300z m10620 -515 l0 -815 -145 0 -145 0 0 75 c0 86 -10 94 -50 41 -37 -50 -116 -104 -178 -122 -39 -12 -83 -15 -157 -12 -94 3 -108 6 -178 41 -89 44 -152 108 -197 200 -54 113 -65 173 -64 367 0 162 2 181 27 257 32 95 91 189 151 238 165 135 431 137 572 3 28 -26 56 -48 62 -48 9 0 12 79 12 295 l0 295 145 0 145 0 0 -815z m1740 515 c0 -208 3 -300 11 -300 6 0 32 21 57 47 151 151 450 145 604 -11 55 -56 109 -155 134 -246 26 -93 26 -377 0 -469 -68 -244 -224 -371 -455 -371 -132 0 -218 35 -294 119 -20 22 -41 41 -47 41 -6 0 -10 -30 -10 -70 l0 -70 -145 0 -145 0 0 815 0 815 145 0 145 0 0 -300z m5140 -374 c0 -671 0 -673 21 -700 19 -24 28 -27 68 -25 26 1 52 0 58 -4 6 -4 13 -39 17 -79 4 -40 10 -90 13 -110 5 -36 5 -37 -38 -48 -69 -19 -225 -9 -275 18 -90 46 -134 108 -154 212 -6 32 -10 320 -10 731 l0 679 150 0 150 0 0 -674z m-41076 284 c94 -162 178 -296 187 -298 10 -2 66 88 184 297 l170 301 163 0 c90 0 161 -3 159 -7 -3 -5 -122 -215 -266 -467 l-261 -459 0 -303 0 -304 -155 0 -155 0 0 303 0 303 -233 410 c-128 225 -248 435 -266 467 l-33 57 168 -2 167 -3 171 -295z m9226 65 l0 -135 165 0 165 0 0 -120 0 -120 -166 0 -165 0 3 -297 c3 -262 5 -302 21 -330 35 -64 125 -82 218 -42 29 13 53 18 58 13 4 -5 24 -55 44 -111 l36 -103 -22 -14 c-78 -52 -118 -61 -257 -61 -133 0 -137 1 -202 33 -79 39 -128 92 -160 171 -22 54 -23 71 -26 399 l-3 342 -90 0 -89 0 0 120 0 120 90 0 89 0 3 113 3 112 130 21 c72 12 136 22 143 23 9 1 12 -32 12 -134z m18120 0 l0 -135 165 0 165 0 0 -120 0 -120 -165 0 -165 0 0 -282 c0 -157 5 -299 10 -319 16 -56 51 -82 118 -87 45 -3 70 1 111 19 63 26 57 32 102 -102 33 -97 33 -99 14 -113 -81 -62 -287 -86 -413 -47 -88 27 -150 80 -192 164 -40 82 -50 181 -50 510 l0 257 -85 0 -85 0 0 120 0 120 85 0 85 0 0 110 c0 61 1 110 3 111 18 4 267 47 280 48 15 1 17 -12 17 -134z m12370 0 l0 -135 163 -2 162 -3 3 -117 3 -118 -166 0 -165 0 0 -295 c0 -326 4 -351 59 -379 43 -23 128 -20 176 4 22 11 44 20 50 20 5 0 27 -48 47 -108 l38 -107 -25 -21 c-54 -44 -121 -59 -260 -59 -119 0 -135 2 -186 26 -101 48 -166 136 -189 259 -5 29 -10 189 -10 356 l0 304 -90 0 -91 0 3 118 3 117 87 3 87 3 3 112 3 112 130 21 c72 12 138 22 148 23 15 1 17 -12 17 -134z m-37991 -140 c207 -55 348 -217 387 -445 19 -108 14 -237 -11 -335 -51 -200 -196 -345 -387 -390 -81 -19 -245 -19 -327 0 -151 36 -281 140 -346 278 -92 192 -84 477 17 656 70 123 208 218 359 246 86 17 226 12 308 -10z m5506 1 c154 -41 254 -135 305 -286 31 -91 41 -327 16 -353 -16 -15 -52 -17 -388 -17 l-371 0 6 -49 c13 -108 83 -193 181 -221 61 -17 190 -9 236 14 44 23 88 63 106 99 8 15 20 27 26 27 8 0 179 -104 207 -126 10 -8 -54 -95 -106 -145 -102 -98 -193 -129 -378 -129 -128 0 -199 15 -301 65 -130 63 -230 199 -265 360 -18 84 -16 284 4 368 50 202 206 358 397 396 30 6 64 13 75 15 34 8 197 -4 250 -18z m1141 4 c72 -16 166 -66 209 -110 l38 -39 -41 -48 c-73 -86 -121 -129 -135 -118 -102 77 -150 95 -250 95 -134 0 -198 -62 -152 -149 19 -38 57 -54 210 -89 233 -54 315 -100 370 -207 27 -53 30 -67 30 -154 0 -82 -4 -104 -27 -152 -68 -147 -211 -219 -434 -219 -181 0 -322 45 -423 136 -75 68 -75 72 15 167 43 45 84 83 91 85 7 2 34 -17 58 -43 64 -65 140 -98 241 -103 131 -7 194 28 194 107 0 76 -32 97 -227 146 -222 56 -308 110 -362 224 -35 75 -35 191 -2 268 28 63 111 145 178 174 106 46 286 59 419 29z m2621 -4 c72 -19 132 -49 180 -91 43 -37 103 -122 103 -147 0 -13 -190 -158 -209 -158 -4 0 -13 11 -19 24 -19 43 -76 99 -120 118 -63 28 -177 27 -237 -2 -95 -46 -134 -128 -142 -294 -13 -256 78 -387 266 -386 110 1 184 46 228 139 15 33 32 60 36 60 20 2 217 -114 217 -126 0 -35 -60 -133 -115 -189 -98 -98 -194 -134 -365 -134 -159 0 -273 36 -377 118 -244 194 -271 676 -52 916 81 88 182 142 314 166 64 12 225 4 292 -14z m1145 10 c203 -37 350 -164 415 -360 24 -73 27 -96 27 -231 1 -165 -10 -217 -66 -329 -63 -125 -196 -227 -339 -261 -82 -19 -246 -19 -327 0 -193 46 -335 189 -389 395 -23 89 -23 291 0 380 71 266 264 412 552 418 28 1 85 -5 127 -12z m1544 -17 c70 -26 137 -87 171 -153 46 -90 52 -166 53 -603 l0 -403 -150 0 -149 0 -3 408 c-3 389 -4 409 -24 446 -29 57 -80 81 -170 80 -89 -1 -153 -29 -195 -87 -58 -79 -62 -109 -67 -494 l-4 -353 -144 0 -144 0 0 585 0 585 140 0 140 0 0 -90 c0 -71 3 -90 14 -90 8 0 17 8 21 19 10 33 99 114 152 138 28 13 71 28 95 33 65 14 199 3 264 -21z m4026 17 c193 -35 314 -146 363 -331 20 -75 23 -298 5 -320 -11 -13 -69 -15 -387 -15 l-375 0 7 -42 c16 -97 65 -172 140 -211 55 -28 173 -35 247 -13 57 16 130 76 143 117 4 10 12 19 20 19 19 0 205 -121 205 -133 0 -21 -64 -109 -109 -148 -97 -86 -199 -119 -367 -119 -190 0 -317 45 -424 150 -106 104 -160 254 -160 450 0 131 19 224 66 318 108 219 350 327 626 278z m1399 0 c89 -19 138 -46 187 -102 89 -100 101 -189 102 -711 l0 -363 -150 0 -150 0 0 383 c0 210 -5 400 -10 421 -20 86 -79 130 -179 130 -87 1 -151 -24 -196 -77 -65 -76 -68 -100 -73 -499 l-3 -358 -145 0 -144 0 0 585 0 586 138 -3 137 -3 3 -87 c1 -49 7 -88 12 -88 5 0 23 20 40 45 86 124 252 179 431 141z m1294 -11 c115 -30 215 -107 264 -203 l21 -42 -86 -62 c-113 -83 -136 -96 -141 -81 -2 6 -18 32 -34 57 -64 96 -217 129 -334 71 -60 -29 -92 -67 -121 -145 -25 -67 -26 -275 0 -352 37 -115 124 -178 246 -178 113 0 197 55 241 157 10 24 21 43 25 43 11 0 213 -110 218 -119 11 -17 -57 -136 -110 -192 -104 -108 -211 -144 -409 -137 -98 4 -132 10 -188 31 -231 90 -348 280 -348 569 0 139 18 223 69 323 77 148 220 248 396 276 69 11 219 2 291 -16z m1180 1 c154 -41 254 -135 305 -286 31 -91 41 -327 16 -353 -16 -15 -52 -17 -388 -17 l-371 0 6 -49 c13 -108 83 -193 181 -221 61 -17 190 -9 236 14 44 23 88 63 106 99 8 15 20 27 26 27 8 0 179 -104 207 -126 10 -8 -54 -95 -106 -145 -102 -98 -193 -129 -378 -129 -128 0 -199 15 -301 65 -130 63 -230 199 -265 360 -18 84 -16 284 4 368 50 202 206 358 397 396 30 6 64 13 75 15 34 8 197 -4 250 -18z m3719 9 c211 -37 335 -164 373 -381 18 -105 13 -261 -8 -275 -8 -5 -182 -9 -387 -9 l-374 0 7 -32 c23 -116 64 -181 139 -221 34 -18 57 -22 141 -22 124 0 177 22 233 96 20 27 40 49 44 49 17 0 198 -123 198 -134 0 -24 -57 -102 -109 -148 -103 -93 -208 -123 -403 -116 -147 6 -221 27 -319 93 -100 68 -159 152 -201 285 -20 65 -23 95 -22 225 0 135 3 158 27 231 91 274 350 415 661 359z m1202 -9 c70 -18 164 -70 204 -111 l33 -34 -77 -86 c-43 -47 -82 -85 -88 -85 -6 0 -27 13 -47 29 -64 51 -102 64 -187 69 -132 7 -194 -25 -194 -101 0 -29 7 -45 28 -66 27 -28 50 -35 258 -85 238 -57 337 -156 338 -341 1 -103 -21 -169 -81 -235 -90 -100 -199 -140 -378 -140 -129 0 -216 17 -308 58 -67 31 -161 109 -172 143 -5 14 13 41 71 104 42 47 82 85 89 85 6 0 33 -21 60 -46 71 -69 141 -98 246 -102 100 -4 150 13 174 59 19 36 19 63 0 99 -21 40 -47 52 -210 94 -227 59 -310 108 -362 214 -24 49 -28 69 -28 142 0 51 6 99 14 120 51 124 163 205 320 230 71 11 231 4 297 -14z m2726 -13 c63 -28 121 -85 144 -139 8 -19 18 -34 22 -34 5 0 23 23 42 51 68 105 168 153 320 153 131 0 188 -20 260 -93 97 -98 94 -83 98 -623 l3 -468 -145 0 -145 0 -3 413 c-3 380 -4 415 -22 450 -31 62 -106 87 -204 66 -45 -9 -66 -20 -98 -53 -73 -73 -77 -97 -82 -513 l-4 -363 -143 0 -144 0 -3 413 c-3 449 -3 448 -63 495 -57 45 -189 34 -251 -21 -84 -73 -94 -132 -94 -554 l0 -333 -145 0 -145 0 0 585 0 586 138 -3 137 -3 3 -77 c2 -60 6 -78 17 -78 8 0 15 4 15 8 0 19 75 94 118 119 100 59 263 66 374 16z m1840 23 c203 -37 350 -164 415 -360 24 -73 27 -96 27 -231 1 -165 -10 -217 -66 -329 -63 -125 -196 -227 -339 -261 -82 -19 -246 -19 -327 0 -193 46 -335 189 -389 395 -23 89 -23 291 0 380 71 266 264 412 552 418 28 1 85 -5 127 -12z m1351 -1 c173 -30 308 -129 380 -275 48 -96 67 -188 67 -320 0 -58 -7 -136 -15 -175 -43 -205 -189 -359 -390 -410 -78 -20 -253 -20 -330 0 -199 51 -339 195 -389 398 -22 89 -23 280 -1 372 70 305 343 470 678 410z m5294 -9 c170 -46 282 -163 318 -333 8 -38 15 -121 15 -185 0 -106 -2 -118 -19 -128 -13 -6 -153 -10 -387 -10 l-367 0 7 -47 c9 -67 50 -146 92 -178 47 -36 113 -55 188 -55 109 0 175 31 231 107 16 23 35 42 40 42 8 1 186 -108 203 -124 10 -9 -45 -92 -91 -137 -101 -101 -204 -138 -383 -138 -193 0 -322 46 -430 154 -108 109 -155 243 -155 446 0 137 18 225 63 318 75 151 211 249 393 282 64 12 215 4 282 -14z m1079 13 c99 -14 167 -39 237 -89 82 -59 82 -68 -5 -158 -40 -42 -79 -78 -86 -80 -6 -2 -31 13 -54 33 -57 48 -129 68 -228 63 -90 -4 -129 -24 -143 -75 -12 -42 14 -95 56 -115 18 -8 95 -30 172 -48 222 -52 308 -100 363 -204 24 -46 27 -61 27 -156 0 -89 -4 -112 -23 -151 -35 -70 -84 -122 -150 -157 -86 -46 -160 -62 -288 -62 -129 0 -228 21 -324 70 -59 30 -160 117 -160 139 0 13 160 181 173 181 5 0 34 -23 63 -50 71 -67 129 -92 230 -98 94 -5 144 8 174 45 41 52 15 139 -49 165 -14 6 -86 25 -159 44 -160 40 -225 68 -287 125 -76 70 -90 106 -90 229 0 92 3 111 25 153 29 58 91 117 157 150 42 21 71 30 178 51 40 8 115 6 191 -5z m4758 -4 c211 -37 335 -164 373 -381 18 -105 13 -261 -8 -275 -8 -5 -182 -9 -387 -9 l-374 0 7 -32 c23 -116 64 -181 139 -221 34 -18 57 -22 141 -22 124 0 177 22 233 96 20 27 40 49 44 49 17 0 198 -123 198 -134 0 -24 -57 -102 -109 -148 -103 -93 -208 -123 -403 -116 -147 6 -221 27 -319 93 -100 68 -159 152 -201 285 -20 65 -23 95 -22 225 0 135 3 158 27 231 91 274 350 415 661 359z m-39106 -21 c27 -11 32 -17 27 -36 -3 -13 -14 -68 -25 -123 -11 -55 -24 -103 -28 -107 -4 -4 -23 -3 -42 2 -47 13 -139 13 -181 -2 -59 -19 -87 -47 -121 -116 l-33 -67 -3 -352 -3 -353 -150 0 -149 0 2 583 3 582 140 0 140 0 3 -87 c1 -49 7 -88 12 -88 5 0 18 17 29 38 22 44 90 108 129 123 78 30 182 31 250 3z m-1776 -391 c3 -385 4 -410 23 -447 31 -62 64 -80 150 -84 121 -7 194 37 243 145 15 33 18 87 22 413 l5 375 145 0 145 0 3 -582 2 -583 -140 0 -140 0 0 85 c0 101 -8 106 -63 34 -77 -101 -161 -139 -308 -139 -165 0 -265 51 -326 167 -50 94 -53 128 -53 593 l0 430 144 0 145 0 3 -407z m12686 -180 l2 -583 -150 0 -150 0 0 578 c0 318 3 582 7 586 4 3 70 5 147 4 l141 -3 3 -582z m26392 2 l0 -585 -145 0 -145 0 0 585 0 585 145 0 145 0 0 -585z m-19396 -246 c98 -27 141 -98 140 -229 -2 -155 -49 -277 -152 -391 -53 -58 -175 -159 -193 -159 -9 0 -99 119 -99 130 1 3 26 23 57 45 94 67 159 150 178 226 6 25 4 27 -36 33 -81 13 -151 117 -134 199 16 75 63 126 133 147 38 12 62 11 106 -1z m12407 -15 c75 -38 104 -115 96 -249 -9 -137 -47 -232 -141 -347 -43 -53 -182 -168 -202 -168 -6 0 -31 29 -57 64 l-46 65 47 35 c67 49 160 149 177 190 24 56 20 73 -17 80 -179 34 -184 303 -7 346 42 11 115 3 150 -16z m9608 15 c60 -13 100 -44 122 -93 44 -97 1 -209 -94 -245 -36 -14 -118 -14 -154 0 -74 27 -121 113 -109 193 13 77 61 127 141 147 42 10 45 10 94 -2z m-21497 -1357 c13 -13 5 -14 -220 -42 -290 -36 -423 -76 -511 -156 -48 -43 -81 -100 -81 -140 0 -47 40 -113 89 -149 69 -51 173 -80 406 -115 352 -53 523 -95 696 -170 174 -77 304 -183 352 -287 33 -73 31 -183 -5 -244 -62 -106 -180 -179 -510 -315 -302 -125 -396 -185 -475 -301 -202 -302 -39 -610 474 -892 230 -127 463 -225 1061 -446 162 -60 252 -105 312 -157 26 -22 60 -70 60 -84 0 -12 -267 -14 -1677 -14 l-1678 0 -89 64 c-262 188 -479 389 -607 561 -86 116 -136 208 -175 320 -24 70 -28 96 -28 200 -1 92 3 133 18 175 85 252 286 441 639 603 72 33 275 107 460 169 513 169 667 253 667 361 0 38 -53 111 -107 145 -27 18 -119 59 -203 93 -224 88 -295 127 -387 212 -164 151 -117 304 132 429 91 46 304 113 450 142 112 21 188 30 425 50 99 8 501 -1 512 -12z"
       id="path4684"
       style="fill:#3949ab;fill-opacity:1" />
    <path
       d="M37805 22366 c-5 -2 -35 -9 -66 -16 -72 -16 -155 -73 -197 -134 -18 -27 -42 -81 -55 -120 l-22 -71 0 -1535 c0 -1424 1 -1540 17 -1597 36 -128 89 -195 195 -245 111 -52 279 -53 393 -2 121 54 187 159 210 334 13 101 13 2909 0 3010 -26 197 -100 304 -245 354 -45 16 -206 31 -230 22z"
       id="path4686"
       style="fill:#3949ab;fill-opacity:1" />
    <path
       d="M44670 22354 c-64 -14 -143 -58 -188 -107 -11 -12 -33 -46 -47 -76 -57 -112 -56 -84 -53 -1727 l3 -1509 21 -62 c41 -120 84 -172 179 -221 63 -32 120 -43 213 -43 215 1 337 95 390 298 16 63 17 177 17 1583 0 1424 -1 1519 -18 1580 -25 92 -51 141 -100 190 -52 51 -97 76 -179 95 -77 18 -152 18 -238 -1z"
       id="path4688"
       style="fill:#3949ab;fill-opacity:1" />
    <path
       d="M55857 22355 c-31 -8 -71 -22 -88 -31 -51 -26 -119 -95 -146 -147 -54 -108 -53 -60 -53 -1688 0 -1034 3 -1524 11 -1564 23 -124 80 -211 174 -265 160 -92 403 -63 528 63 50 50 81 122 97 225 7 44 10 575 8 1582 l-3 1515 -22 66 c-40 116 -124 203 -227 235 -74 22 -209 27 -279 9z"
       id="path4690"
       style="fill:#3949ab;fill-opacity:1" />
    <path
       d="M22282 21448 l3 -863 170 -3 c302 -5 424 23 505 115 89 101 104 237 97 852 -4 346 -8 438 -21 489 -34 132 -89 201 -199 245 -47 19 -75 22 -305 25 l-252 4 2 -864z"
       id="path4692"
       style="fill:#3949ab;fill-opacity:1" />
    <path
       d="M25196 20843 c-104 -698 -189 -1272 -190 -1278 -1 -6 134 -11 382 -13 256 -1 382 1 382 8 0 18 -370 2484 -377 2518 -6 24 -59 -313 -197 -1235z"
       id="path4694"
       style="fill:#3949ab;fill-opacity:1" />
    <path
       d="M17923 15000 c-23 -3 -63 -20 -90 -36 -38 -24 -55 -44 -83 -98 l-35 -69 0 -146 c0 -132 2 -151 24 -198 28 -64 95 -128 147 -142 90 -25 188 -8 249 41 73 61 100 157 93 334 -4 95 -9 129 -27 171 -48 109 -152 162 -278 143z"
       id="path4696"
       style="fill:#3949ab;fill-opacity:1" />
    <path
       d="M28389 14999 c-145 -22 -209 -131 -209 -352 0 -173 42 -270 140 -320 49 -26 63 -28 130 -24 113 6 171 45 219 147 22 48 26 71 29 177 3 104 1 133 -18 194 -41 136 -147 201 -291 178z"
       id="path4698"
       style="fill:#3949ab;fill-opacity:1" />
    <path
       d="M36038 14999 c-61 -9 -112 -41 -149 -92 -45 -62 -62 -135 -62 -262 1 -173 44 -269 146 -320 88 -44 222 -29 290 33 30 27 64 102 77 170 18 89 8 251 -19 324 -43 114 -149 168 -283 147z"
       id="path4700"
       style="fill:#3949ab;fill-opacity:1" />
    <path
       d="M45836 14999 c-69 -11 -125 -53 -158 -119 -51 -101 -60 -281 -22 -411 20 -68 90 -141 149 -158 93 -26 203 -4 263 52 85 79 117 307 66 465 -42 128 -158 195 -298 171z"
       id="path4702"
       style="fill:#3949ab;fill-opacity:1" />
    <path
       d="M48403 14999 c-88 -17 -157 -79 -189 -170 -27 -77 -27 -281 0 -358 24 -69 94 -141 152 -159 51 -15 126 -15 179 -1 63 17 127 90 150 170 21 77 25 237 6 321 -32 146 -152 225 -298 197z"
       id="path4704"
       style="fill:#3949ab;fill-opacity:1" />
    <path
       d="M13749 15000 c-124 -21 -192 -110 -209 -271 -9 -92 3 -223 25 -277 26 -62 65 -103 123 -129 47 -22 64 -25 133 -21 111 7 161 38 209 132 l35 69 0 141 c0 158 -13 215 -65 278 -53 64 -150 94 -251 78z"
       id="path4706"
       style="fill:#3949ab;fill-opacity:1" />
    <path
       d="M19250 15021 c-97 -21 -167 -97 -194 -213 l-6 -28 244 0 244 0 -5 43 c-3 23 -17 67 -31 97 -22 44 -36 59 -72 77 -51 25 -128 35 -180 24z"
       id="path4708"
       style="fill:#3949ab;fill-opacity:1" />
    <path
       d="M24209 15000 c-62 -11 -101 -32 -138 -77 -53 -64 -66 -120 -66 -278 l0 -141 35 -69 c48 -96 97 -127 213 -133 75 -3 87 -1 137 25 107 55 145 153 138 359 -3 97 -8 129 -27 171 -50 112 -158 165 -292 143z"
       id="path4710"
       style="fill:#3949ab;fill-opacity:1" />
    <path
       d="M29785 15023 c-53 -12 -88 -27 -116 -50 -35 -30 -74 -103 -84 -156 l-7 -37 242 0 243 0 -7 51 c-14 104 -68 169 -156 188 -52 11 -79 12 -115 4z"
       id="path4712"
       style="fill:#3949ab;fill-opacity:1" />
    <path
       d="M33600 15021 c-97 -21 -167 -97 -194 -213 l-6 -28 244 0 244 0 -5 43 c-3 23 -17 67 -31 97 -22 44 -36 59 -72 77 -51 25 -128 35 -180 24z"
       id="path4714"
       style="fill:#3949ab;fill-opacity:1" />
    <path
       d="M37348 15016 c-26 -7 -62 -25 -82 -39 -35 -27 -79 -107 -91 -164 l-7 -33 241 0 241 0 0 28 c0 103 -66 191 -159 211 -64 14 -83 13 -143 -3z"
       id="path4716"
       style="fill:#3949ab;fill-opacity:1" />
    <path
       d="M43139 15000 c-62 -11 -101 -32 -138 -77 -53 -64 -66 -120 -66 -278 l0 -141 35 -69 c48 -96 97 -127 213 -133 75 -3 87 -1 137 25 107 55 145 153 138 359 -3 97 -8 129 -27 171 -50 112 -158 165 -292 143z"
       id="path4718"
       style="fill:#3949ab;fill-opacity:1" />
    <path
       d="M44492 14999 c-147 -19 -223 -163 -209 -394 9 -145 55 -237 141 -282 17 -9 63 -18 102 -21 166 -11 254 68 284 253 13 78 6 202 -15 272 -39 130 -149 193 -303 172z"
       id="path4720"
       style="fill:#3949ab;fill-opacity:1" />
    <path
       d="M49717 15016 c-86 -24 -143 -85 -171 -183 l-15 -53 245 0 245 0 -7 48 c-8 56 -28 109 -52 135 -47 52 -160 77 -245 53z"
       id="path4722"
       style="fill:#3949ab;fill-opacity:1" />
    <path
       d="M55598 15016 c-26 -7 -62 -25 -82 -39 -35 -27 -79 -107 -91 -164 l-7 -33 241 0 241 0 0 28 c0 103 -66 191 -159 211 -64 14 -83 13 -143 -3z"
       id="path4724"
       style="fill:#3949ab;fill-opacity:1" />
  </g>
</svg>
